<svg width="32" height="32" viewBox="0 0 32 32" xmlns="http://www.w3.org/2000/svg">
  <defs>
    <linearGradient id="bg" x1="0%" y1="0%" x2="100%" y2="100%">
      <stop offset="0%" style="stop-color:#6366f1;stop-opacity:1" />
      <stop offset="100%" style="stop-color:#8b5cf6;stop-opacity:1" />
    </linearGradient>
  </defs>
  <rect width="32" height="32" rx="6" fill="url(#bg)"/>
  <g fill="white">
    <rect x="4" y="4" width="7" height="7" rx="1"/>
    <rect x="21" y="4" width="7" height="7" rx="1"/>
    <rect x="4" y="21" width="7" height="7" rx="1"/>
    <rect x="6" y="6" width="3" height="3" rx="0.5" fill="#6366f1"/>
    <rect x="23" y="6" width="3" height="3" rx="0.5" fill="#6366f1"/>
    <rect x="6" y="23" width="3" height="3" rx="0.5" fill="#6366f1"/>
    <rect x="13" y="4" width="2" height="2" rx="0.5"/>
    <rect x="17" y="4" width="2" height="2" rx="0.5"/>
    <rect x="4" y="13" width="2" height="2" rx="0.5"/>
    <rect x="4" y="17" width="2" height="2" rx="0.5"/>
    <rect x="13" y="13" width="2" height="2" rx="0.5"/>
    <rect x="17" y="13" width="2" height="2" rx="0.5"/>
    <rect x="13" y="17" width="2" height="2" rx="0.5"/>
    <rect x="26" y="13" width="2" height="2" rx="0.5"/>
    <rect x="26" y="17" width="2" height="2" rx="0.5"/>
    <rect x="13" y="26" width="2" height="2" rx="0.5"/>
    <rect x="17" y="26" width="2" height="2" rx="0.5"/>
    <circle cx="16" cy="16" r="4" fill="white"/>
    <text x="16" y="20" text-anchor="middle" font-family="Arial, sans-serif" font-size="8" font-weight="bold" fill="#6366f1">Q</text>
  </g>
</svg>